<?xml version="1.0" encoding="utf-8"?>
<!-- Generator: Adobe Illustrator 19.0.0, SVG Export Plug-In . SVG Version: 6.00 Build 0)  -->
<svg version="1.1" id="Layer_1" xmlns="http://www.w3.org/2000/svg" xmlns:xlink="http://www.w3.org/1999/xlink" x="0px" y="0px"
	 viewBox="0 0 1024 1024" style="enable-background:new 0 0 1024 1024;" xml:space="preserve">
<style type="text/css">
	.st0{fill:#FFFFFF;}
	.st1{fill:none;stroke:#000000;stroke-width:39;stroke-linecap:round;stroke-linejoin:round;stroke-miterlimit:10;}
</style>
<path id="XMLID_6_" d="M1823.1,234.9v706c0,45.9-37.2,83.1-83.1,83.1h-523.4c-45.9,0-83.1-37.2-83.1-83.1V84.1
	c0-45.9,37.2-83.1,83.1-83.1h401.6c25.1,0,48.9,11.4,64.7,30.9l121.8,150.8C1816.6,197.4,1823.1,215.9,1823.1,234.9z"/>
<path class="st0" d="M1823.2,287.2h-219.7c-11.2,0-20.3-9.1-20.3-20.3c0-11.2,9.1-20.3,20.3-20.3h219.7V287.2z"/>
<path class="st0" d="M1582.1,1v265.4c0,11.2,9.1,20.3,20.3,20.3s20.3-9.1,20.3-20.3V1H1582.1z"/>
<path class="st0" d="M1725.5,924.1h-494.3c-11.2,0-20.3-9.1-20.3-20.3s9.1-20.3,20.3-20.3h494.3c11.2,0,20.3,9.1,20.3,20.3
	S1736.7,924.1,1725.5,924.1z"/>
<path class="st0" d="M1725.5,791.9h-494.3c-11.2,0-20.3-9.1-20.3-20.3s9.1-20.3,20.3-20.3h494.3c11.2,0,20.3,9.1,20.3,20.3
	S1736.7,791.9,1725.5,791.9z"/>
<polygon id="XMLID_16_" class="st1" points="-111.4,217.5 -111.4,1004 -774,1004 -774,21 -270.1,21 "/>
<line id="XMLID_15_" class="st1" x1="-120.5" y1="276.5" x2="-322.5" y2="276.5"/>
<line id="XMLID_14_" class="st1" x1="-324" y1="276" x2="-324" y2="25"/>
<line id="XMLID_13_" class="st1" x1="-205.5" y1="888.5" x2="-680.5" y2="888.5"/>
<line id="XMLID_12_" class="st1" x1="-205.5" y1="761.5" x2="-680.5" y2="761.5"/>
<g id="XMLID_3_">
	<path id="XMLID_10_" d="M-443.3,605.4l45.8,59.2h-59.3l-23.3-29.9c-19.2,10.5-40.7,15.8-64.3,15.8c-39.5,0-72.4-13.6-98.5-40.9
		c-26.1-27.2-39.2-59.7-39.2-97.4c0-25.2,6.1-48.3,18.3-69.3c12.2-21,28.9-37.8,50.2-50.2c21.3-12.4,44.2-18.6,68.6-18.6
		c37.3,0,69.4,13.5,96.2,40.4c26.8,27,40.2,59.8,40.2,98.6C-408.6,548.7-420.2,579.5-443.3,605.4z M-474.6,564.9
		c10.6-15.7,15.9-33.1,15.9-52.2c0-24.9-8.4-46.1-25.2-63.5c-16.8-17.4-37.2-26.1-61.1-26.1c-24.6,0-45.2,8.5-61.8,25.4
		c-16.6,16.9-24.9,38.5-24.9,64.6c0,29.1,10.5,52.1,31.4,69c16.4,13.2,34.9,19.9,55.7,19.9c11.9,0,23.2-2.3,33.7-7l-47.1-60.6h59.8
		L-474.6,564.9z"/>
	<path id="XMLID_9_" d="M-361.6,380.7h53.1c28.7,0,49.5,2.7,62.2,8s22.7,13.9,30.1,25.8c7.3,11.9,11,26.1,11,42.7
		c0,18.4-4.8,33.6-14.4,45.8c-9.6,12.2-22.6,20.6-39.1,25.4c-9.7,2.7-27.3,4.1-52.8,4.1v111.4h-50.1V380.7z M-311.5,483.6h15.9
		c12.5,0,21.2-0.9,26.1-2.7c4.9-1.8,8.7-4.8,11.5-8.9s4.2-9.1,4.2-15c0-10.2-3.9-17.6-11.8-22.3c-5.7-3.5-16.3-5.2-31.8-5.2h-14.1
		V483.6z"/>
</g>
<text transform="matrix(1 0 0 1 1175.1958 680.7827)" class="st0" style="font-family:'CenturyGothic-Bold'; font-size:433.1265px;">QP</text>
<g>
	<path d="M838.3,182.6L716.6,31.9c-14.9-18.4-36.8-29.5-60.3-30.8v245.5h200.5v-11.7C856.8,215.9,850.3,197.4,838.3,182.6z
		 M628.2,285.1c-7.4-3-12.5-10.3-12.5-18.7V1H250.3c-45.9,0-83.1,37.2-83.1,83.1v856.8c0,45.9,37.2,83.1,83.1,83.1h523.4
		c45.9,0,83.1-37.2,83.1-83.1V287.2H637.1C633.9,287.2,630.9,286.4,628.2,285.1z M324.7,396.1h51.8l103.3,268.5h-53.1l-21-55.3
		H296.1l-21.8,55.3h-53.1L324.7,396.1z M759.2,924.1H264.8c-11.2,0-20.3-9.1-20.3-20.3s9.1-20.3,20.3-20.3h494.3
		c11.2,0,20.3,9.1,20.3,20.3S770.4,924.1,759.2,924.1z M759.2,791.9H264.8c-11.2,0-20.3-9.1-20.3-20.3s9.1-20.3,20.3-20.3h494.3
		c11.2,0,20.3,9.1,20.3,20.3S770.4,791.9,759.2,791.9z M683.8,396.1h51.1v219.8h74.5v48.7H683.8V396.1z M644.9,664.6H519.3V396.1
		h51.1v219.8h74.5V664.6z M350.9,467.3l-36,92.2h71.8L350.9,467.3z"/>
</g>
</svg>
