<?xml version="1.0" encoding="utf-8"?>
<!-- Generator: Adobe Illustrator 19.0.0, SVG Export Plug-In . SVG Version: 6.00 Build 0)  -->
<svg version="1.1" id="Layer_1" xmlns="http://www.w3.org/2000/svg" xmlns:xlink="http://www.w3.org/1999/xlink" x="0px" y="0px"
	 viewBox="0 0 1024 1024" style="enable-background:new 0 0 1024 1024;" xml:space="preserve">
<style type="text/css">
	.st0{fill:#FFFFFF;}
	.st1{fill:none;stroke:#000000;stroke-width:39;stroke-linecap:round;stroke-linejoin:round;stroke-miterlimit:10;}
</style>
<path id="XMLID_6_" d="M1823.1,234.9v706c0,45.9-37.2,83.1-83.1,83.1h-523.4c-45.9,0-83.1-37.2-83.1-83.1V84.1
	c0-45.9,37.2-83.1,83.1-83.1h401.6c25.1,0,48.9,11.4,64.7,30.9l121.8,150.8C1816.6,197.4,1823.1,215.9,1823.1,234.9z"/>
<path class="st0" d="M1823.2,287.2h-219.7c-11.2,0-20.3-9.1-20.3-20.3c0-11.2,9.1-20.3,20.3-20.3h219.7V287.2z"/>
<path class="st0" d="M1582.1,1v265.4c0,11.2,9.1,20.3,20.3,20.3s20.3-9.1,20.3-20.3V1H1582.1z"/>
<path class="st0" d="M1725.5,924.1h-494.3c-11.2,0-20.3-9.1-20.3-20.3s9.1-20.3,20.3-20.3h494.3c11.2,0,20.3,9.1,20.3,20.3
	S1736.7,924.1,1725.5,924.1z"/>
<path class="st0" d="M1725.5,791.9h-494.3c-11.2,0-20.3-9.1-20.3-20.3s9.1-20.3,20.3-20.3h494.3c11.2,0,20.3,9.1,20.3,20.3
	S1736.7,791.9,1725.5,791.9z"/>
<polygon id="XMLID_16_" class="st1" points="-111.4,217.5 -111.4,1004 -774,1004 -774,21 -270.1,21 "/>
<line id="XMLID_15_" class="st1" x1="-120.5" y1="276.5" x2="-322.5" y2="276.5"/>
<line id="XMLID_14_" class="st1" x1="-324" y1="276" x2="-324" y2="25"/>
<line id="XMLID_13_" class="st1" x1="-205.5" y1="888.5" x2="-680.5" y2="888.5"/>
<line id="XMLID_12_" class="st1" x1="-205.5" y1="761.5" x2="-680.5" y2="761.5"/>
<g id="XMLID_3_">
	<path id="XMLID_10_" d="M-443.3,605.4l45.8,59.2h-59.3l-23.3-29.9c-19.2,10.5-40.7,15.8-64.3,15.8c-39.5,0-72.4-13.6-98.5-40.9
		c-26.1-27.2-39.2-59.7-39.2-97.4c0-25.2,6.1-48.3,18.3-69.3c12.2-21,28.9-37.8,50.2-50.2c21.3-12.4,44.2-18.6,68.6-18.6
		c37.3,0,69.4,13.5,96.2,40.4c26.8,27,40.2,59.8,40.2,98.6C-408.6,548.7-420.2,579.5-443.3,605.4z M-474.6,564.9
		c10.6-15.7,15.9-33.1,15.9-52.2c0-24.9-8.4-46.1-25.2-63.5c-16.8-17.4-37.2-26.1-61.1-26.1c-24.6,0-45.2,8.5-61.8,25.4
		c-16.6,16.9-24.9,38.5-24.9,64.6c0,29.1,10.5,52.1,31.4,69c16.4,13.2,34.9,19.9,55.7,19.9c11.9,0,23.2-2.3,33.7-7l-47.1-60.6h59.8
		L-474.6,564.9z"/>
	<path id="XMLID_9_" d="M-361.6,380.7h53.1c28.7,0,49.5,2.7,62.2,8s22.7,13.9,30.1,25.8c7.3,11.9,11,26.1,11,42.7
		c0,18.4-4.8,33.6-14.4,45.8c-9.6,12.2-22.6,20.6-39.1,25.4c-9.7,2.7-27.3,4.1-52.8,4.1v111.4h-50.1V380.7z M-311.5,483.6h15.9
		c12.5,0,21.2-0.9,26.1-2.7c4.9-1.8,8.7-4.8,11.5-8.9s4.2-9.1,4.2-15c0-10.2-3.9-17.6-11.8-22.3c-5.7-3.5-16.3-5.2-31.8-5.2h-14.1
		V483.6z"/>
</g>
<text transform="matrix(1 0 0 1 1175.1958 680.7827)" class="st0" style="font-family:'CenturyGothic-Bold'; font-size:433.1265px;">QP</text>
<path id="XMLID_2_" d="M-854.9,234.9v706c0,45.9-37.2,83.1-83.1,83.1h-523.4c-45.9,0-83.1-37.2-83.1-83.1V84.1
	c0-45.9,37.2-83.1,83.1-83.1h401.6c25.1,0,48.9,11.4,64.7,30.9l121.8,150.8C-861.4,197.4-854.9,215.9-854.9,234.9z"/>
<path class="st0" d="M-854.8,287.2h-219.7c-11.2,0-20.3-9.1-20.3-20.3c0-11.2,9.1-20.3,20.3-20.3h219.7V287.2z"/>
<g>
	<path d="M584.8,409.9c2.8-1,4.9-2.7,6.5-5c1.6-2.3,2.4-5.1,2.4-8.4c0-5.7-2.2-9.9-6.6-12.5c-3.2-2-9.2-2.9-17.9-2.9h-8v30.4h9
		C577.2,411.4,582.1,410.9,584.8,409.9z M319,383.9c-3.2-2-9.2-2.9-17.9-2.9h-8v30.4h9c7,0,11.9-0.5,14.7-1.5c2.8-1,4.9-2.7,6.5-5
		c1.6-2.3,2.4-5.1,2.4-8.4C325.6,390.7,323.4,386.6,319,383.9z M420.3,443.6h39.6l-19.8-50.9L420.3,443.6z M879.6,182.6L757.9,31.9
		C743,13.5,721.1,2.4,697.6,1.1v245.5h200.5v-11.7C898.1,215.9,891.6,197.4,879.6,182.6z M669.5,285.1c-7.4-3-12.5-10.3-12.5-18.7V1
		H291.6c-45.9,0-83.1,37.2-83.1,83.1v856.8c0,45.9,37.2,83.1,83.1,83.1H815c45.9,0,83.1-37.2,83.1-83.1V287.2H678.4
		C675.2,287.2,672.2,286.4,669.5,285.1z M532.9,353.5h29.9c16.2,0,27.8,1.5,35,4.5c7.1,3,12.8,7.8,16.9,14.5
		c4.1,6.7,6.2,14.7,6.2,24c0,10.3-2.7,18.9-8.1,25.8c-5.4,6.8-12.7,11.6-22,14.3c-5.4,1.5-15.3,2.3-29.7,2.3v62.7h-28.2V353.5z
		 M344.8,422.3c-5.4,6.8-12.7,11.6-22,14.3c-5.4,1.5-15.3,2.3-29.7,2.3v62.7h-28.2V353.5h29.9c16.2,0,27.8,1.5,35,4.5
		c7.1,3,12.8,7.8,16.9,14.5c4.1,6.7,6.2,14.7,6.2,24C352.9,406.9,350.2,415.5,344.8,422.3z M397.9,501.6h-29.3l57.1-148.1h28.6
		l57,148.1h-29.3l-11.6-30.5h-60.4L397.9,501.6z M679.4,965.4H416.8v-34.5l117.3-119.6c28.3-28.7,47.2-51.8,56.6-69.2
		c9.4-17.4,14-33.2,14-47.3c0-14.6-4.9-26.7-14.6-36.2c-9.7-9.5-22.2-14.3-37.5-14.3c-15.5,0-28.3,5.8-38.7,17.3
		c-10.3,11.5-15.8,27.1-16.5,46.9h-70.4c1.9-40.9,14.7-73.1,38.5-96.5c23.8-23.5,54.3-35.2,91.6-35.2c23,0,43.3,4.9,61,14.6
		c17.6,9.7,31.7,23.7,42.3,42c10.6,18.3,15.8,36.9,15.8,55.8c0,22.5-6.4,46.7-19.2,72.7c-12.8,25.9-36.2,56.6-70.3,92l-42.5,44.8
		h135.1V965.4z M757.7,353.5h29.9c16.4,0,28,1.5,35,4.4s12.5,7.8,16.7,14.6c4.2,6.8,6.3,14.8,6.3,24.1c0,9.7-2.3,17.9-7,24.4
		c-4.7,6.5-11.7,11.5-21.1,14.9l35.1,65.9h-30.8l-33.3-62.7h-2.6v62.7h-28.2V353.5z M729.5,381.1h-52.9v26.8h52.9V435h-52.9v39h52.9
		v27.7h-80.9V353.5h80.9V381.1z M813.3,407.9c3.4-2.4,5.1-6.3,5.1-11.7c0-3.2-0.8-6-2.5-8.4c-1.7-2.4-3.9-4.1-6.7-5.2
		c-2.8-1-8-1.6-15.5-1.6h-7.7v30.4h8.8C803.7,411.4,809.9,410.2,813.3,407.9z"/>
</g>
<path class="st0" d="M-1095.9,1v265.4c0,11.2,9.1,20.3,20.3,20.3s20.3-9.1,20.3-20.3V1H-1095.9z"/>
<text transform="matrix(1 0 0 1 -1323.1265 936.1582)" class="st0" style="font-family:'CenturyGothic-Bold'; font-size:469.9876px;">1</text>
<text transform="matrix(1 0 0 1 -1492.1958 501.6484)" class="st0" style="font-family:'CenturyGothic-Bold'; font-size:206.2276px;">PAPER</text>
</svg>
